<svg xmlns="http://www.w3.org/2000/svg" width="63" height="63" viewBox="0 0 63 63">
    <path fill-rule="evenodd" d="M31.5 0c-.828 0-1.5.784-1.5 1.75v10.5c0 .966.672 1.75 1.5 1.75s1.5-.784 1.5-1.75V1.75C33 .784 32.328 0 31.5 0zM10.729 9c-.451 0-.874.208-1.213.548a1.737 1.737 0 0 0 0 2.472l7.435 7.465a1.815 1.815 0 0 0 2.533 0 1.802 1.802 0 0 0 0-2.525l-7.489-7.412c-.34-.34-.817-.548-1.266-.548zM52.27 9c-.449 0-.926.208-1.266.548l-7.489 7.412a1.802 1.802 0 0 0 0 2.525 1.815 1.815 0 0 0 2.533 0l7.435-7.465a1.737 1.737 0 0 0 0-2.472C53.145 9.208 52.722 9 52.27 9zM1.75 30C.784 30 0 30.672 0 31.5S.784 33 1.75 33h10.5c.966 0 1.75-.672 1.75-1.5s-.784-1.5-1.75-1.5H1.75zm49 0c-.966 0-1.75.672-1.75 1.5s.784 1.5 1.75 1.5h10.5c.966 0 1.75-.672 1.75-1.5s-.784-1.5-1.75-1.5h-10.5zM18.217 43c-.449 0-.926.155-1.266.497l-7.435 7.502a1.751 1.751 0 0 0 0 2.484c.689.69 1.79.69 2.48 0l7.488-7.449a1.817 1.817 0 0 0 0-2.537c-.339-.342-.818-.497-1.267-.497zm26.566 0c-.449 0-.928.155-1.267.497a1.817 1.817 0 0 0 0 2.537l7.489 7.449c.688.69 1.79.69 2.479 0a1.751 1.751 0 0 0 0-2.484l-7.435-7.502c-.34-.342-.817-.497-1.266-.497zM31.5 49c-.828 0-1.5.784-1.5 1.75v10.5c0 .966.672 1.75 1.5 1.75s1.5-.784 1.5-1.75v-10.5c0-.966-.672-1.75-1.5-1.75z"/>
</svg>

