<svg xmlns="http://www.w3.org/2000/svg" width="27" height="27" viewBox="0 0 27 27">
    <path fill-rule="evenodd" d="M14 0c-.552 0-1 .336-1 .75v4.5c0 .414.448.75 1 .75s1-.336 1-.75V.75c0-.414-.448-.75-1-.75zM4.786 4a.784.784 0 0 0-.551.25.79.79 0 0 0 0 1.123l3.379 3.393a.825.825 0 0 0 1.151 0 .82.82 0 0 0 0-1.148L5.361 4.25A.844.844 0 0 0 4.786 4zm18.428 0a.844.844 0 0 0-.575.25l-3.404 3.368a.82.82 0 0 0 0 1.148.825.825 0 0 0 1.151 0l3.38-3.393a.79.79 0 0 0 0-1.124.784.784 0 0 0-.552-.249zM.75 13c-.414 0-.75.448-.75 1s.336 1 .75 1h4.5c.414 0 .75-.448.75-1s-.336-1-.75-1H.75zm21 0c-.414 0-.75.448-.75 1s.336 1 .75 1h4.5c.414 0 .75-.448.75-1s-.336-1-.75-1h-4.5zM8.19 19c-.204 0-.421.07-.576.226l-3.38 3.41a.796.796 0 0 0 0 1.129.792.792 0 0 0 1.127 0l3.404-3.386a.826.826 0 0 0 0-1.153A.813.813 0 0 0 8.19 19zm11.62 0a.813.813 0 0 0-.575.226.826.826 0 0 0 0 1.153l3.404 3.386a.792.792 0 0 0 1.126 0 .796.796 0 0 0 0-1.129l-3.379-3.41A.815.815 0 0 0 19.81 19zM14 21c-.552 0-1 .336-1 .75v4.5c0 .414.448.75 1 .75s1-.336 1-.75v-4.5c0-.414-.448-.75-1-.75z"/>
</svg>
